<svg width="548" height="548" viewBox="0 0 548 548" fill="none" xmlns="http://www.w3.org/2000/svg">
<path fill-rule="evenodd" clip-rule="evenodd" d="M72.9749 351.795C67.0127 332.314 63.8047 311.63 63.8047 290.196C63.8047 174.108 157.913 80 274.001 80C390.089 80 484.197 174.108 484.197 290.196C484.197 311.63 480.989 332.314 475.027 351.795H400.222C409.316 333.198 414.42 312.293 414.42 290.196C414.42 212.646 351.553 149.779 274.003 149.779C196.453 149.779 133.586 212.646 133.586 290.196C133.586 312.293 138.69 333.198 147.783 351.795H72.9749Z" fill="url(#paint0_linear_2311_1982)"/>
<path fill-rule="evenodd" clip-rule="evenodd" d="M113.457 368.19C108.695 351.404 106.133 333.581 106.133 315.112C106.133 215.084 181.292 133.996 274.006 133.996C366.719 133.996 441.878 215.084 441.878 315.112C441.878 333.581 439.316 351.404 434.554 368.19H374.813C382.076 352.165 386.152 334.152 386.152 315.112C386.152 248.291 335.944 194.122 274.008 194.122C212.073 194.122 161.865 248.291 161.865 315.112C161.865 334.152 165.941 352.165 173.204 368.19H113.457Z" fill="url(#paint1_linear_2311_1982)"/>
<path fill-rule="evenodd" clip-rule="evenodd" d="M274.006 332.234C359.308 332.234 431.423 269.503 455.023 183.295C473.559 214.616 484.197 251.162 484.197 290.194C484.197 349.317 459.787 402.739 420.496 440.932C385.804 393.817 333.065 363.745 274.004 363.745C214.943 363.745 162.202 393.819 127.51 440.935C88.2163 402.743 63.8047 349.319 63.8047 290.194C63.8047 251.157 74.4459 214.606 92.9857 183.283C116.583 269.497 188.701 332.234 274.006 332.234Z" fill="#E9E9E9"/>
<path fill-rule="evenodd" clip-rule="evenodd" d="M274.006 332.234C359.308 332.234 431.423 269.503 455.023 183.295C473.559 214.616 484.197 251.162 484.197 290.194C484.197 365.045 445.073 430.758 386.159 467.999C360.944 415.539 320.1 381.446 274.003 381.446C227.905 381.446 187.061 415.54 161.846 468.001C102.93 430.76 63.8047 365.046 63.8047 290.194C63.8047 251.157 74.4459 214.606 92.9857 183.283C116.583 269.497 188.701 332.234 274.006 332.234Z" fill="url(#paint2_linear_2311_1982)"/>
<path d="M408.102 128.248C392.86 231.317 331.661 321.859 274.004 332.498C273.292 332.498 272.581 332.49 271.871 332.473L271.852 332.485C272.568 332.494 273.285 332.498 274.004 332.498C359.428 332.498 431.628 269.587 455.123 183.187C440.092 159.076 428.894 146.417 408.102 128.248Z" fill="url(#paint3_linear_2311_1982)"/>
<defs>
<linearGradient id="paint0_linear_2311_1982" x1="274.001" y1="80" x2="274.001" y2="490.971" gradientUnits="userSpaceOnUse">
<stop stop-color="#F767CF"/>
<stop offset="0.914744" stop-color="#2DEFE3"/>
</linearGradient>
<linearGradient id="paint1_linear_2311_1982" x1="274.006" y1="133.996" x2="274.006" y2="570.399" gradientUnits="userSpaceOnUse">
<stop stop-color="#EA36B8"/>
<stop offset="0.501821" stop-color="#53FFF5"/>
</linearGradient>
<linearGradient id="paint2_linear_2311_1982" x1="111.665" y1="420.375" x2="484.2" y2="246.811" gradientUnits="userSpaceOnUse">
<stop stop-color="#6BEDFC"/>
<stop offset="1" stop-color="#CB38BD"/>
</linearGradient>
<linearGradient id="paint3_linear_2311_1982" x1="637.19" y1="5.36417" x2="239.244" y2="274.232" gradientUnits="userSpaceOnUse">
<stop offset="0.368946" stop-color="#DD42BB"/>
<stop offset="1" stop-color="#FFAC4A"/>
</linearGradient>
</defs>
</svg>
